<svg width="32" height="32" viewBox="0 0 32 32" fill="none" xmlns="http://www.w3.org/2000/svg">
<path d="M0 0H32V28C32 30.2091 30.2091 32 28 32H4C1.79086 32 0 30.2091 0 28V0Z" fill="white"/>
<path d="M20.3986 10.7414H10.2558C9.73046 10.7414 9.22514 10.9632 8.8695 11.35C8.51386 11.7367 8.33512 12.2588 8.37902 12.7823L9.25776 23.2579C9.29734 23.7298 9.51111 24.1662 9.85969 24.4867C10.2082 24.8073 10.661 24.9838 11.1345 24.9838H19.5199C19.9934 24.9838 20.4462 24.8073 20.7947 24.4867C21.1433 24.1662 21.3571 23.7298 21.3967 23.2578L22.2754 12.7823C22.3193 12.2588 22.1405 11.7367 21.7849 11.35C21.4293 10.9632 20.924 10.7414 20.3986 10.7414ZM20.8983 12.6668L20.0196 23.1423C19.9978 23.4022 19.7806 23.6019 19.5199 23.6019H11.1346C10.8738 23.6019 10.6566 23.4022 10.6348 23.1423L9.75611 12.6668C9.73156 12.3743 9.96233 12.1234 10.2558 12.1234H20.3986C20.6921 12.1234 20.9228 12.3743 20.8983 12.6668Z" fill="#888888"/>
<path d="M19.52 24.9999H11.1347C10.657 24.9999 10.2004 24.8218 9.84887 24.4985C9.49729 24.1752 9.28168 23.735 9.24178 23.2591L8.36304 12.7835C8.31875 12.2555 8.49904 11.7289 8.85772 11.3389C9.21639 10.9489 9.72603 10.7251 10.2559 10.7251H20.3987C20.9286 10.7251 21.4382 10.9489 21.7969 11.3389C22.1556 11.7289 22.3358 12.2555 22.2916 12.7835L21.4129 23.259C21.373 23.735 21.1573 24.1751 20.8058 24.4985C20.4542 24.8218 19.9975 24.9999 19.52 24.9999ZM10.256 10.7574C9.73506 10.7574 9.23407 10.9773 8.88149 11.3608C8.52891 11.7442 8.35165 12.2618 8.3952 12.7809L9.27394 23.2564C9.31316 23.7243 9.52513 24.157 9.87071 24.4748C10.2163 24.7926 10.6652 24.9676 11.1347 24.9676H19.52C19.9895 24.9676 20.4383 24.7926 20.784 24.4748C21.1296 24.157 21.3415 23.7243 21.3808 23.2564L22.2595 12.7808C22.303 12.2618 22.1258 11.7442 21.7732 11.3608C21.4206 10.9774 20.9197 10.7575 20.3987 10.7575H10.256V10.7574ZM19.52 23.6179H11.1347C10.8678 23.6179 10.6412 23.4096 10.6189 23.1436L9.74016 12.668C9.7281 12.5241 9.77722 12.3806 9.87497 12.2744C9.97271 12.1681 10.1116 12.1071 10.256 12.1071H20.3987C20.5431 12.1071 20.682 12.168 20.7797 12.2743C20.8774 12.3806 20.9266 12.5241 20.9145 12.668L20.0358 23.1436C20.0135 23.4096 19.7869 23.6179 19.52 23.6179ZM10.256 12.1394C10.1206 12.1394 9.99035 12.1965 9.89871 12.2962C9.80706 12.3958 9.761 12.5304 9.77232 12.6653L10.6511 23.1408C10.672 23.3903 10.8844 23.5856 11.1347 23.5856H19.52C19.7703 23.5856 19.9828 23.3903 20.0037 23.1408L20.8824 12.6653C20.8937 12.5303 20.8476 12.3958 20.756 12.2961C20.6643 12.1965 20.5341 12.1394 20.3987 12.1394H10.256Z" fill="#888888"/>
<path d="M8.707 9.99476H21.9463C22.3279 9.99476 22.6372 9.6854 22.6372 9.30379C22.6372 8.92218 22.3279 8.61283 21.9463 8.61283H19.4366V8.58167V7.89964C19.4366 6.86113 18.5918 6.01624 17.5533 6.01624H13.1001C12.0616 6.01624 11.2167 6.86113 11.2167 7.89964V8.58167V8.61283H8.707C8.32539 8.61283 8.01604 8.92218 8.01604 9.30379C8.01604 9.6854 8.32539 9.99476 8.707 9.99476ZM12.5986 7.89964C12.5986 7.62268 12.8231 7.39816 13.1 7.39816H17.5533C17.8302 7.39816 18.0547 7.62268 18.0547 7.89964V8.58167H12.5986V7.89964Z" fill="#888888"/>
<path d="M21.9464 10.0108H8.70709C8.31719 10.0108 8 9.69359 8 9.30369C8 8.91382 8.31719 8.59659 8.70709 8.59659H11.2006V7.89954C11.2006 6.85216 12.0527 6 13.1002 6H17.5534C18.6008 6 19.4529 6.85216 19.4529 7.89954V8.59659H21.9464C22.3363 8.59659 22.6535 8.91379 22.6535 9.30369C22.6534 9.69359 22.3363 10.0108 21.9464 10.0108ZM8.70709 8.62885C8.335 8.62885 8.03226 8.93159 8.03226 9.30369C8.03226 9.67581 8.335 9.97852 8.70709 9.97852H21.9464C22.3184 9.97852 22.6212 9.67578 22.6212 9.30369C22.6212 8.93159 22.3184 8.62885 21.9464 8.62885H19.4206V7.89954C19.4206 6.86993 18.583 6.03226 17.5534 6.03226H13.1002C12.0706 6.03226 11.2329 6.86993 11.2329 7.89954V8.62885H8.70709ZM18.0709 8.59766H12.5825V7.89954C12.5825 7.61412 12.8147 7.38193 13.1001 7.38193H17.5534C17.8388 7.38193 18.0709 7.61412 18.0709 7.89954V8.59766V8.59766ZM12.6148 8.5654H18.0387V7.89954C18.0387 7.63192 17.821 7.41418 17.5534 7.41418H13.1002C12.8325 7.41418 12.6148 7.63192 12.6148 7.89954V8.5654H12.6148Z" fill="#888888"/>
<path d="M12.8876 14.7817C12.8624 14.4008 12.5331 14.1127 12.1526 14.1378C11.7718 14.1629 11.4835 14.492 11.5087 14.8728L11.9099 20.9436C11.934 21.3089 12.2378 21.5891 12.5987 21.5891C12.614 21.5891 12.6294 21.5885 12.6449 21.5875C13.0257 21.5624 13.314 21.2333 13.2888 20.8525L12.8876 14.7817Z" fill="#888888"/>
<path d="M12.5975 21.6051C12.2267 21.6051 11.9171 21.315 11.8926 20.9446L11.4914 14.8737C11.4789 14.6853 11.5406 14.5033 11.6651 14.3612C11.7895 14.2191 11.9619 14.134 12.1503 14.1215C12.5419 14.096 12.877 14.3945 12.9025 14.7804L13.3037 20.8513C13.3294 21.2404 13.0338 21.5778 12.6448 21.6035C12.6289 21.6046 12.6132 21.6051 12.5975 21.6051ZM12.1975 14.1522C12.1826 14.1522 12.1676 14.1527 12.1525 14.1537C11.9726 14.1656 11.8082 14.2468 11.6894 14.3824C11.5706 14.518 11.5117 14.6917 11.5236 14.8716L11.9248 20.9424C11.9492 21.3109 12.2697 21.5955 12.6427 21.5713C13.014 21.5468 13.2961 21.2247 13.2716 20.8534L12.8704 14.7826C12.847 14.4291 12.5515 14.1522 12.1975 14.1522Z" fill="#888888"/>
<path d="M15.3266 14.1362C14.945 14.1362 14.6356 14.4456 14.6356 14.8272V20.8981C14.6356 21.2797 14.945 21.589 15.3266 21.589C15.7082 21.589 16.0176 21.2797 16.0176 20.8981V14.8272C16.0176 14.4456 15.7082 14.1362 15.3266 14.1362Z" fill="#888888"/>
<path d="M15.3268 21.605C14.9369 21.605 14.6197 21.2878 14.6197 20.8979V14.8271C14.6197 14.4372 14.9369 14.12 15.3268 14.12C15.7167 14.12 16.0339 14.4372 16.0339 14.8271V20.8979C16.0339 21.2878 15.7167 21.605 15.3268 21.605ZM15.3268 14.1523C14.9547 14.1523 14.652 14.455 14.652 14.8271V20.8979C14.652 21.27 14.9547 21.5728 15.3268 21.5728C15.6989 21.5728 16.0016 21.27 16.0016 20.8979V14.8271C16.0017 14.455 15.6989 14.1523 15.3268 14.1523Z" fill="#888888"/>
<path d="M18.5017 14.1378C18.1212 14.1127 17.7918 14.4008 17.7667 14.7817L17.3655 20.8525C17.3404 21.2333 17.6286 21.5624 18.0094 21.5876C18.0249 21.5886 18.0403 21.5891 18.0556 21.5891C18.4165 21.5891 18.7203 21.3089 18.7445 20.9437L19.1456 14.8728C19.1708 14.492 18.8825 14.1629 18.5017 14.1378Z" fill="#888888"/>
<path d="M18.056 21.6051C18.0403 21.6051 18.0246 21.6045 18.0087 21.6035C17.6196 21.5778 17.324 21.2404 17.3497 20.8513L17.7509 14.7805C17.7764 14.3945 18.1118 14.0959 18.5031 14.1215C18.6916 14.134 18.8639 14.2191 18.9883 14.3611C19.1128 14.5032 19.1745 14.6852 19.162 14.8737L18.7608 20.9446C18.7363 21.3149 18.4267 21.6051 18.056 21.6051ZM18.4559 14.1522C18.102 14.1522 17.8064 14.4291 17.7831 14.7826L17.3819 20.8535C17.3574 21.2247 17.6395 21.5468 18.0108 21.5713C18.3851 21.5955 18.7043 21.3109 18.7287 20.9425L19.1298 14.8716C19.1417 14.6917 19.0829 14.518 18.9641 14.3824C18.8453 14.2468 18.6808 14.1656 18.5009 14.1537C18.4859 14.1527 18.4708 14.1522 18.4559 14.1522Z" fill="#888888"/>
</svg>
