<svg width="32" height="32" viewBox="0 0 32 32" fill="none" xmlns="http://www.w3.org/2000/svg">
<rect width="32" height="32" fill="#E8D7C4"/>
<path d="M0 0H32V32H0V0Z" fill="#FAF0CA"/>
<path d="M19.5352 21H13.5469V19.7402L15.6973 17.5664C16.1309 17.1211 16.4785 16.75 16.7402 16.4531C17.0059 16.1523 17.1973 15.8789 17.3145 15.6328C17.4355 15.3867 17.4961 15.123 17.4961 14.8418C17.4961 14.502 17.4004 14.248 17.209 14.0801C17.0215 13.9082 16.7695 13.8223 16.4531 13.8223C16.1211 13.8223 15.7988 13.8984 15.4863 14.0508C15.1738 14.2031 14.8477 14.4199 14.5078 14.7012L13.5234 13.5352C13.7695 13.3242 14.0293 13.125 14.3027 12.9375C14.5801 12.75 14.9004 12.5996 15.2637 12.4863C15.6309 12.3691 16.0703 12.3105 16.582 12.3105C17.1445 12.3105 17.627 12.4121 18.0293 12.6152C18.4355 12.8184 18.748 13.0957 18.9668 13.4473C19.1855 13.7949 19.2949 14.1895 19.2949 14.6309C19.2949 15.1035 19.2012 15.5352 19.0137 15.9258C18.8262 16.3164 18.5527 16.7031 18.1934 17.0859C17.8379 17.4688 17.4082 17.8926 16.9043 18.3574L15.8027 19.3945V19.4766H19.5352V21Z" fill="#888888"/>
</svg>
