<svg width="52" height="17" viewBox="0 0 52 17" fill="none" xmlns="http://www.w3.org/2000/svg">
<g clip-path="url(#clip0_13_553)">
<path d="M26.8931 5.3679C26.8634 7.70696 28.9776 9.01218 30.5703 9.78828C32.2066 10.5845 32.7562 11.0951 32.7497 11.8072C32.7375 12.8969 31.4445 13.3779 30.2345 13.3966C28.1236 13.4293 26.8961 12.8267 25.9204 12.3709L25.1599 15.9292C26.1389 16.3803 27.9517 16.7738 29.8315 16.791C34.2442 16.791 37.1311 14.6128 37.1467 11.2357C37.164 6.94955 31.2182 6.71231 31.2588 4.79654C31.2728 4.21563 31.8271 3.59573 33.0418 3.43811C33.643 3.35849 35.3026 3.29756 37.1843 4.16404L37.9228 0.721257C36.9109 0.352808 35.6103 -1.81354e-06 33.9911 -1.81354e-06C29.8378 -1.81354e-06 26.9166 2.20785 26.8931 5.3679M45.0192 0.296545C44.2134 0.296545 43.5344 0.766551 43.2314 1.48781L36.9281 16.5382H41.3376L42.215 14.1132H47.6032L48.1122 16.5382H51.9986L48.6072 0.296545H45.0192M45.6361 4.68402L46.9086 10.7829H43.4235L45.6361 4.68402M21.5469 0.296748L18.0712 16.538H22.273L25.7471 0.296342H21.5469M15.331 0.296342L10.9576 11.3512L9.18843 1.95172C8.98085 0.902435 8.16108 0.296545 7.25072 0.296545H0.101509L0.00137329 0.768176C1.46908 1.08666 3.13664 1.60034 4.14693 2.14996C4.76521 2.48571 4.94152 2.77921 5.14463 3.57704L8.49541 16.5382H12.9357L19.7433 0.296545H15.331" fill="url(#paint0_linear_13_553)"/>
</g>
<defs>
<linearGradient id="paint0_linear_13_553" x1="23.9066" y1="17.1279" x2="24.3926" y2="-0.116778" gradientUnits="userSpaceOnUse">
<stop stop-color="#222357"/>
<stop offset="1" stop-color="#254AA5"/>
</linearGradient>
<clipPath id="clip0_13_553">
<rect width="52" height="16.8585" fill="white"/>
</clipPath>
</defs>
</svg>
