<svg width="50" height="50" viewBox="0 0 50 50" fill="none" xmlns="http://www.w3.org/2000/svg">
<path d="M31.8187 39.0167C29.0465 39.0171 26.3364 38.1954 24.0312 36.6556C21.7259 35.1158 19.929 32.9269 18.8677 30.3659C17.8065 27.8048 17.5285 24.9866 18.0689 22.2675C18.6093 19.5485 19.9439 17.0508 21.9039 15.0902C23.8639 13.1296 26.3612 11.7943 29.0801 11.2531C31.799 10.7118 34.6173 10.989 37.1787 12.0495C39.7401 13.11 41.9294 14.9062 43.4699 17.211C45.0105 19.5158 45.8329 22.2257 45.8333 24.9979V25C45.8295 28.7159 44.3518 32.2785 41.7244 34.9063C39.0971 37.534 35.5347 39.0123 31.8187 39.0167V39.0167Z" fill="#F79E1B"/>
<path d="M18.1813 39.0167C15.409 39.0167 12.699 38.1946 10.394 36.6544C8.08898 35.1143 6.29243 32.9252 5.23154 30.364C4.17065 27.8027 3.89307 24.9845 4.43391 22.2655C4.97475 19.5465 6.3097 17.049 8.26997 15.0887C10.2302 13.1285 12.7278 11.7935 15.4467 11.2527C18.1657 10.7118 20.984 10.9894 23.5452 12.0503C26.1064 13.1112 28.2955 14.9077 29.8357 17.2128C31.3759 19.5178 32.1979 22.2278 32.1979 25C32.1941 28.7163 30.7161 32.2792 28.0883 34.907C25.4605 37.5348 21.8975 39.0128 18.1813 39.0167Z" fill="#EB001B"/>
</svg>
