<svg width="52" height="120" viewBox="0 0 52 120" fill="none" xmlns="http://www.w3.org/2000/svg">
<g filter="url(#filter0_dd_36_402)">
<path d="M12 12C12 9.79086 13.7909 8 16 8H40C42.2091 8 44 9.79086 44 12V40H12V12Z" fill="white"/>
<path d="M22 24H34" stroke="#888888" stroke-width="1.5" stroke-linecap="round" stroke-linejoin="round"/>
<path d="M28 30V18" stroke="#888888" stroke-width="1.5" stroke-linecap="round" stroke-linejoin="round"/>
<rect width="32" height="32" transform="translate(12 40)" fill="#E8D7C4"/>
<path d="M12 40H44V72H12V40Z" fill="#FAF0CA"/>
<path d="M31.5352 61H25.5469V59.7402L27.6973 57.5664C28.1309 57.1211 28.4785 56.75 28.7402 56.4531C29.0059 56.1523 29.1973 55.8789 29.3145 55.6328C29.4355 55.3867 29.4961 55.123 29.4961 54.8418C29.4961 54.502 29.4004 54.248 29.209 54.0801C29.0215 53.9082 28.7695 53.8223 28.4531 53.8223C28.1211 53.8223 27.7988 53.8984 27.4863 54.0508C27.1738 54.2031 26.8477 54.4199 26.5078 54.7012L25.5234 53.5352C25.7695 53.3242 26.0293 53.125 26.3027 52.9375C26.5801 52.75 26.9004 52.5996 27.2637 52.4863C27.6309 52.3691 28.0703 52.3105 28.582 52.3105C29.1445 52.3105 29.627 52.4121 30.0293 52.6152C30.4355 52.8184 30.748 53.0957 30.9668 53.4473C31.1855 53.7949 31.2949 54.1895 31.2949 54.6309C31.2949 55.1035 31.2012 55.5352 31.0137 55.9258C30.8262 56.3164 30.5527 56.7031 30.1934 57.0859C29.8379 57.4688 29.4082 57.8926 28.9043 58.3574L27.8027 59.3945V59.4766H31.5352V61Z" fill="#888888"/>
<path d="M12 72H44V100C44 102.209 42.2091 104 40 104H16C13.7909 104 12 102.209 12 100V72Z" fill="white"/>
<path d="M32.3986 82.7414H22.2559C21.7305 82.7414 21.2252 82.9632 20.8695 83.35C20.5139 83.7367 20.3351 84.2588 20.379 84.7823L21.2578 95.2579C21.2974 95.7298 21.5111 96.1662 21.8597 96.4867C22.2082 96.8073 22.6611 96.9838 23.1346 96.9838H31.5199C31.9934 96.9838 32.4462 96.8073 32.7948 96.4867C33.1433 96.1662 33.3571 95.7298 33.3967 95.2578L34.2754 84.7823C34.3193 84.2588 34.1406 83.7367 33.7849 83.35C33.4293 82.9632 32.924 82.7414 32.3986 82.7414ZM32.8983 84.6668L32.0196 95.1423C31.9978 95.4022 31.7806 95.6019 31.5199 95.6019H23.1346C22.8739 95.6019 22.6566 95.4022 22.6349 95.1423L21.7561 84.6668C21.7316 84.3743 21.9623 84.1234 22.2559 84.1234H32.3986C32.6921 84.1234 32.9229 84.3743 32.8983 84.6668Z" fill="#888888"/>
<path d="M31.52 96.9999H23.1347C22.657 96.9999 22.2004 96.8218 21.8489 96.4985C21.4973 96.1752 21.2817 95.735 21.2418 95.2591L20.363 84.7835C20.3188 84.2555 20.499 83.7289 20.8577 83.3389C21.2164 82.9489 21.726 82.7251 22.2559 82.7251H32.3987C32.9286 82.7251 33.4382 82.9489 33.7969 83.3389C34.1556 83.7289 34.3358 84.2555 34.2916 84.7835L33.4129 95.259C33.373 95.735 33.1573 96.1751 32.8058 96.4985C32.4542 96.8218 31.9975 96.9999 31.52 96.9999ZM22.256 82.7574C21.7351 82.7574 21.2341 82.9773 20.8815 83.3608C20.5289 83.7442 20.3517 84.2618 20.3952 84.7809L21.2739 95.2564C21.3132 95.7243 21.5251 96.157 21.8707 96.4748C22.2163 96.7926 22.6652 96.9676 23.1347 96.9676H31.52C31.9895 96.9676 32.4383 96.7926 32.784 96.4748C33.1296 96.157 33.3415 95.7243 33.3808 95.2564L34.2595 84.7808C34.303 84.2618 34.1258 83.7442 33.7732 83.3608C33.4206 82.9774 32.9197 82.7575 32.3987 82.7575H22.256V82.7574ZM31.52 95.6179H23.1347C22.8678 95.6179 22.6412 95.4096 22.6189 95.1436L21.7402 84.668C21.7281 84.5241 21.7772 84.3806 21.875 84.2744C21.9727 84.1681 22.1116 84.1071 22.256 84.1071H32.3987C32.5431 84.1071 32.682 84.168 32.7797 84.2743C32.8774 84.3806 32.9266 84.5241 32.9145 84.668L32.0358 95.1436C32.0135 95.4096 31.7869 95.6179 31.52 95.6179ZM22.256 84.1394C22.1206 84.1394 21.9904 84.1965 21.8987 84.2962C21.8071 84.3958 21.761 84.5304 21.7723 84.6653L22.6511 95.1408C22.672 95.3903 22.8844 95.5856 23.1347 95.5856H31.52C31.7703 95.5856 31.9828 95.3903 32.0037 95.1408L32.8824 84.6653C32.8937 84.5303 32.8476 84.3958 32.756 84.2961C32.6643 84.1965 32.5341 84.1394 32.3987 84.1394H22.256Z" fill="#888888"/>
<path d="M20.707 81.9948H33.9463C34.3279 81.9948 34.6372 81.6854 34.6372 81.3038C34.6372 80.9222 34.3279 80.6128 33.9463 80.6128H31.4367V80.5817V79.8996C31.4367 78.8611 30.5918 78.0162 29.5533 78.0162H25.1001C24.0616 78.0162 23.2167 78.8611 23.2167 79.8996V80.5817V80.6128H20.707C20.3254 80.6128 20.0161 80.9222 20.0161 81.3038C20.0161 81.6854 20.3254 81.9948 20.707 81.9948ZM24.5986 79.8996C24.5986 79.6227 24.8231 79.3982 25.1001 79.3982H29.5533C29.8302 79.3982 30.0547 79.6227 30.0547 79.8996V80.5817H24.5986V79.8996Z" fill="#888888"/>
<path d="M33.9464 82.0108H20.7071C20.3172 82.0108 20 81.6936 20 81.3037C20 80.9138 20.3172 80.5966 20.7071 80.5966H23.2006V79.8995C23.2006 78.8522 24.0527 78 25.1002 78H29.5534C30.6008 78 31.4529 78.8522 31.4529 79.8995V80.5966H33.9464C34.3363 80.5966 34.6535 80.9138 34.6535 81.3037C34.6534 81.6936 34.3363 82.0108 33.9464 82.0108ZM20.7071 80.6289C20.335 80.6289 20.0323 80.9316 20.0323 81.3037C20.0323 81.6758 20.335 81.9785 20.7071 81.9785H33.9464C34.3184 81.9785 34.6212 81.6758 34.6212 81.3037C34.6212 80.9316 34.3184 80.6289 33.9464 80.6289H31.4206V79.8995C31.4206 78.8699 30.583 78.0323 29.5534 78.0323H25.1002C24.0706 78.0323 23.2329 78.8699 23.2329 79.8995V80.6289H20.7071ZM30.0709 80.5977H24.5825V79.8995C24.5825 79.6141 24.8147 79.3819 25.1001 79.3819H29.5534C29.8388 79.3819 30.0709 79.6141 30.0709 79.8995V80.5977V80.5977ZM24.6148 80.5654H30.0387V79.8995C30.0387 79.6319 29.821 79.4142 29.5534 79.4142H25.1002C24.8325 79.4142 24.6148 79.6319 24.6148 79.8995V80.5654H24.6148Z" fill="#888888"/>
<path d="M24.8876 86.7817C24.8624 86.4008 24.5331 86.1127 24.1526 86.1378C23.7718 86.1629 23.4835 86.492 23.5087 86.8728L23.9099 92.9436C23.934 93.3089 24.2378 93.5891 24.5987 93.5891C24.614 93.5891 24.6294 93.5885 24.6449 93.5875C25.0257 93.5624 25.314 93.2333 25.2888 92.8525L24.8876 86.7817Z" fill="#888888"/>
<path d="M24.5975 93.6051C24.2267 93.6051 23.9171 93.315 23.8926 92.9446L23.4914 86.8737C23.4789 86.6853 23.5406 86.5033 23.6651 86.3612C23.7895 86.2191 23.9619 86.134 24.1503 86.1215C24.5419 86.096 24.877 86.3945 24.9025 86.7804L25.3037 92.8513C25.3294 93.2404 25.0338 93.5778 24.6448 93.6035C24.6289 93.6046 24.6131 93.6051 24.5975 93.6051ZM24.1975 86.1522C24.1826 86.1522 24.1676 86.1527 24.1525 86.1537C23.9726 86.1656 23.8082 86.2468 23.6893 86.3824C23.5706 86.518 23.5117 86.6917 23.5236 86.8716L23.9248 92.9424C23.9492 93.3109 24.2697 93.5955 24.6427 93.5713C25.014 93.5468 25.2961 93.2247 25.2716 92.8534L24.8703 86.7826C24.847 86.4291 24.5514 86.1522 24.1975 86.1522Z" fill="#888888"/>
<path d="M27.3266 86.1362C26.945 86.1362 26.6356 86.4456 26.6356 86.8272V92.8981C26.6356 93.2797 26.945 93.589 27.3266 93.589C27.7082 93.589 28.0175 93.2797 28.0175 92.8981V86.8272C28.0176 86.4456 27.7082 86.1362 27.3266 86.1362Z" fill="#888888"/>
<path d="M27.3268 93.605C26.9369 93.605 26.6197 93.2878 26.6197 92.8979V86.8271C26.6197 86.4372 26.9369 86.12 27.3268 86.12C27.7167 86.12 28.0339 86.4372 28.0339 86.8271V92.8979C28.0339 93.2878 27.7167 93.605 27.3268 93.605ZM27.3268 86.1523C26.9547 86.1523 26.6519 86.455 26.6519 86.8271V92.8979C26.6519 93.27 26.9547 93.5728 27.3268 93.5728C27.6989 93.5728 28.0016 93.27 28.0016 92.8979V86.8271C28.0016 86.455 27.6989 86.1523 27.3268 86.1523Z" fill="#888888"/>
<path d="M30.5017 86.1378C30.1212 86.1127 29.7918 86.4008 29.7667 86.7817L29.3655 92.8525C29.3403 93.2333 29.6286 93.5624 30.0094 93.5876C30.0249 93.5886 30.0403 93.5891 30.0556 93.5891C30.4165 93.5891 30.7203 93.3089 30.7445 92.9437L31.1456 86.8728C31.1708 86.492 30.8825 86.1629 30.5017 86.1378Z" fill="#888888"/>
<path d="M30.056 93.6051C30.0403 93.6051 30.0246 93.6045 30.0087 93.6035C29.6196 93.5778 29.324 93.2404 29.3497 92.8513L29.7509 86.7805C29.7764 86.3945 30.1118 86.0959 30.5031 86.1215C30.6916 86.134 30.8639 86.2191 30.9883 86.3611C31.1128 86.5032 31.1745 86.6852 31.162 86.8737L30.7608 92.9446C30.7363 93.3149 30.4267 93.6051 30.056 93.6051ZM30.4559 86.1522C30.102 86.1522 29.8064 86.4291 29.7831 86.7826L29.3819 92.8535C29.3574 93.2247 29.6395 93.5468 30.0108 93.5713C30.3851 93.5955 30.7043 93.3109 30.7287 92.9425L31.1298 86.8716C31.1417 86.6917 31.0829 86.518 30.9641 86.3824C30.8453 86.2468 30.6808 86.1656 30.5009 86.1537C30.4859 86.1527 30.4708 86.1522 30.4559 86.1522Z" fill="#888888"/>
</g>
<defs>
<filter id="filter0_dd_36_402" x="0" y="0" width="56" height="120" filterUnits="userSpaceOnUse" color-interpolation-filters="sRGB">
<feFlood flood-opacity="0" result="BackgroundImageFix"/>
<feColorMatrix in="SourceAlpha" type="matrix" values="0 0 0 0 0 0 0 0 0 0 0 0 0 0 0 0 0 0 127 0" result="hardAlpha"/>
<feOffset dy="4"/>
<feGaussianBlur stdDeviation="6"/>
<feComposite in2="hardAlpha" operator="out"/>
<feColorMatrix type="matrix" values="0 0 0 0 0 0 0 0 0 0 0 0 0 0 0 0 0 0 0.25 0"/>
<feBlend mode="normal" in2="BackgroundImageFix" result="effect1_dropShadow_36_402"/>
<feColorMatrix in="SourceAlpha" type="matrix" values="0 0 0 0 0 0 0 0 0 0 0 0 0 0 0 0 0 0 127 0" result="hardAlpha"/>
<feOffset dy="4"/>
<feGaussianBlur stdDeviation="2"/>
<feComposite in2="hardAlpha" operator="out"/>
<feColorMatrix type="matrix" values="0 0 0 0 0 0 0 0 0 0 0 0 0 0 0 0 0 0 0.25 0"/>
<feBlend mode="normal" in2="effect1_dropShadow_36_402" result="effect2_dropShadow_36_402"/>
<feBlend mode="normal" in="SourceGraphic" in2="effect2_dropShadow_36_402" result="shape"/>
</filter>
</defs>
</svg>
