<svg width="159" height="28" viewBox="0 0 159 28" fill="none" xmlns="http://www.w3.org/2000/svg">
<path d="M28.8278 14.4748C28.8278 13.3105 28.7297 12.4609 28.5173 11.5799H14.7081V16.8348H22.8138C22.6504 18.1407 21.7679 20.1074 19.8068 21.429L19.7793 21.6049L24.1455 24.8614L24.448 24.8904C27.2262 22.4202 28.8278 18.7858 28.8278 14.4748Z" fill="#4285F4"/>
<path d="M6.34073 16.9607C6.03023 16.0797 5.85054 15.1356 5.85054 14.1601C5.85054 13.1846 6.03023 12.2406 6.32439 11.3596L6.31617 11.1719L1.71922 7.73486L1.56882 7.80374C0.571985 9.72325 0 11.8788 0 14.1601C0 16.4415 0.571985 18.5969 1.56882 20.5164L6.34073 16.9607Z" fill="#FBBC05"/>
<path d="M14.7083 5.47523C17.4701 5.47523 19.3331 6.62378 20.3954 7.58359L24.5463 3.68165C21.997 1.40029 18.6794 0 14.7083 0C8.95577 0 3.98745 3.17811 1.56882 7.80374L6.32439 11.3596C7.51748 7.94539 10.8189 5.47523 14.7083 5.47523Z" fill="#EB4335"/>
<path d="M92.3187 15.0715C92.3593 19.2454 96.1732 20.6346 96.2153 20.6523C96.183 20.75 95.606 22.6318 94.2062 24.5751C92.9961 26.2554 91.74 27.9293 89.7618 27.9644C87.818 27.9982 87.1928 26.869 84.9702 26.869C82.7482 26.869 82.0539 27.9293 80.2136 27.9982C78.3038 28.067 76.8496 26.181 75.6295 24.5072C73.1364 21.0828 71.2311 14.8307 73.7893 10.6104C75.0602 8.51454 77.3317 7.18755 79.7969 7.15336C81.6721 7.11939 83.4421 8.3518 84.5883 8.3518C85.7339 8.3518 87.8848 6.86962 90.146 7.0872C91.0927 7.12472 93.7498 7.45042 95.456 9.82332C95.3188 9.90435 92.2857 11.5819 92.3187 15.0715ZM88.6653 4.82198C89.6791 3.65617 90.3615 2.03279 90.1755 0.418076C88.7139 0.473801 86.9468 1.34321 85.8986 2.50857C84.9592 3.54028 84.1366 5.19207 84.3584 6.77482C85.9874 6.89471 87.6513 5.98844 88.6653 4.82198Z" fill="black"/>
<path d="M154.457 26.0498V15.2474H158.273L158.845 11.038H154.458V8.35012C154.458 7.13052 154.813 6.30048 156.653 6.30048L159 6.29929V2.53391C157.864 2.41973 156.723 2.36439 155.581 2.36814C152.197 2.36814 149.882 4.33016 149.882 7.93333V11.038H146.055V15.2474H149.882V26.0498H154.457Z" fill="#6563FF"/>
</svg>
