<svg width="40" height="41" viewBox="0 0 40 41" fill="none" xmlns="http://www.w3.org/2000/svg">
<circle cx="20" cy="20.25" r="20" fill="#D9C9C5"/>
<path fill-rule="evenodd" clip-rule="evenodd" d="M25.44 14.4864C25.48 14.5563 25.55 14.6063 25.64 14.6063C28.04 14.6063 30 16.5641 30 18.9614V24.8948C30 27.2922 28.04 29.25 25.64 29.25H14.36C11.95 29.25 10 27.2922 10 24.8948V18.9614C10 16.5641 11.95 14.6063 14.36 14.6063C14.44 14.6063 14.52 14.5663 14.55 14.4864L14.61 14.3665C14.6445 14.294 14.6799 14.2194 14.7158 14.1438C14.9716 13.6049 15.2546 13.0088 15.43 12.6584C15.89 11.7594 16.67 11.26 17.64 11.25H22.35C23.32 11.26 24.11 11.7594 24.57 12.6584C24.7275 12.9731 24.9674 13.4799 25.1987 13.9684C25.2464 14.0692 25.2938 14.1692 25.34 14.2666L25.44 14.4864ZM24.71 18.3221C24.71 18.8216 25.11 19.2211 25.61 19.2211C26.11 19.2211 26.52 18.8216 26.52 18.3221C26.52 17.8227 26.11 17.4132 25.61 17.4132C25.11 17.4132 24.71 17.8227 24.71 18.3221ZM18.27 19.8704C18.74 19.4009 19.35 19.1512 20 19.1512C20.65 19.1512 21.26 19.4009 21.72 19.8604C22.18 20.3199 22.43 20.9292 22.43 21.5785C22.42 22.917 21.34 24.0058 20 24.0058C19.35 24.0058 18.74 23.7561 18.28 23.2966C17.82 22.8371 17.57 22.2278 17.57 21.5785V21.5685C17.56 20.9392 17.81 20.3299 18.27 19.8704ZM22.77 24.3554C22.06 25.0647 21.08 25.5042 20 25.5042C18.95 25.5042 17.97 25.0946 17.22 24.3554C16.48 23.6063 16.07 22.6274 16.07 21.5785C16.06 20.5397 16.47 19.5608 17.21 18.8116C17.96 18.0624 18.95 17.6529 20 17.6529C21.05 17.6529 22.04 18.0624 22.78 18.8016C23.52 19.5508 23.93 20.5397 23.93 21.5785C23.92 22.6673 23.48 23.6462 22.77 24.3554Z" fill="white"/>
</svg>
