<svg width="127" height="46" viewBox="0 0 127 46" fill="none" xmlns="http://www.w3.org/2000/svg">
<rect x="0.824921" width="125.25" height="46" rx="20" fill="#F5F5F5"/>
<rect x="18.8249" y="13.5" width="17.625" height="19" rx="3" fill="black"/>
<path d="M31.7624 21.5439H23.5124C23.1257 21.5439 22.8249 21.8662 22.8249 22.2314V22.9189C22.8249 23.3057 23.1257 23.6064 23.5124 23.6064H31.7624C32.1277 23.6064 32.4499 23.3057 32.4499 22.9189V22.2314C32.4499 21.8662 32.1277 21.5439 31.7624 21.5439Z" fill="white"/>
<rect x="46.4499" y="10" width="34" height="26" fill="#F5F5F5"/>
<rect x="90.4499" y="13.5" width="17.625" height="19" rx="3" fill="black"/>
<path d="M103.387 21.5439H100.294V18.4502C100.294 18.085 99.9714 17.7627 99.6062 17.7627H98.9187C98.532 17.7627 98.2312 18.085 98.2312 18.4502V21.5439H95.1374C94.7507 21.5439 94.4499 21.8662 94.4499 22.2314V22.9189C94.4499 23.3057 94.7507 23.6064 95.1374 23.6064H98.2312V26.7002C98.2312 27.0869 98.532 27.3877 98.9187 27.3877H99.6062C99.9714 27.3877 100.294 27.0869 100.294 26.7002V23.6064H103.387C103.753 23.6064 104.075 23.3057 104.075 22.9189V22.2314C104.075 21.8662 103.753 21.5439 103.387 21.5439Z" fill="white"/>
</svg>
