<svg width="24" height="25" viewBox="0 0 24 25" fill="none" xmlns="http://www.w3.org/2000/svg">
<path fill-rule="evenodd" clip-rule="evenodd" d="M18.7071 9.04633C18.7071 10.3023 19.039 11.0425 19.7695 11.8956C20.3231 12.5241 20.5 13.3308 20.5 14.206C20.5 15.0802 20.2128 15.9101 19.6373 16.5839C18.884 17.3917 17.8215 17.9073 16.7372 17.997C15.1659 18.1309 13.5937 18.2437 12.0005 18.2437C10.4063 18.2437 8.83505 18.1763 7.26375 17.997C6.17846 17.9073 5.11602 17.3917 4.36367 16.5839C3.78822 15.9101 3.5 15.0802 3.5 14.206C3.5 13.3308 3.6779 12.5241 4.23049 11.8956C4.98384 11.0425 5.29392 10.3023 5.29392 9.04633V8.6203C5.29392 6.93834 5.71333 5.83852 6.577 4.76186C7.86106 3.1917 9.91935 2.25 11.9558 2.25H12.0452C14.1254 2.25 16.2502 3.23702 17.5125 4.87466C18.3314 5.92916 18.7071 6.98265 18.7071 8.6203V9.04633ZM9.07367 20.3108C9.07367 19.8073 9.53582 19.5766 9.96318 19.4779C10.4631 19.3722 13.5093 19.3722 14.0092 19.4779C14.4366 19.5766 14.8987 19.8073 14.8987 20.3108C14.8738 20.7902 14.5926 21.2153 14.204 21.4852C13.7001 21.878 13.1088 22.1267 12.4906 22.2164C12.1487 22.2607 11.8128 22.2617 11.4828 22.2164C10.8636 22.1267 10.2723 21.878 9.76938 21.4842C9.37978 21.2153 9.09852 20.7902 9.07367 20.3108Z" fill="#083A50"/>
</svg>
