<svg width="19" height="20" viewBox="0 0 19 20" fill="none" xmlns="http://www.w3.org/2000/svg">
<rect x="0.449921" y="0.5" width="17.625" height="19" rx="3" fill="black"/>
<path d="M13.3874 8.54395H10.2937V5.4502C10.2937 5.08496 9.97141 4.7627 9.60617 4.7627H8.91867C8.53195 4.7627 8.23117 5.08496 8.23117 5.4502V8.54395H5.13742C4.7507 8.54395 4.44992 8.86621 4.44992 9.23145V9.91895C4.44992 10.3057 4.7507 10.6064 5.13742 10.6064H8.23117V13.7002C8.23117 14.0869 8.53195 14.3877 8.91867 14.3877H9.60617C9.97141 14.3877 10.2937 14.0869 10.2937 13.7002V10.6064H13.3874C13.7527 10.6064 14.0749 10.3057 14.0749 9.91895V9.23145C14.0749 8.86621 13.7527 8.54395 13.3874 8.54395Z" fill="white"/>
</svg>
