<svg width="90" height="25" viewBox="0 0 90 25" fill="none" xmlns="http://www.w3.org/2000/svg">
<path d="M8.09375 3.86255L6.0625 8.0188L1.46875 8.67505C0.65625 8.80005 0.34375 9.80005 0.9375 10.3938L4.21875 13.6125L3.4375 18.1438C3.3125 18.9563 4.1875 19.5813 4.90625 19.2063L9 17.05L13.0625 19.2063C13.7812 19.5813 14.6562 18.9563 14.5312 18.1438L13.75 13.6125L17.0312 10.3938C17.625 9.80005 17.3125 8.80005 16.5 8.67505L11.9375 8.0188L9.875 3.86255C9.53125 3.1438 8.46875 3.11255 8.09375 3.86255Z" fill="#07393C"/>
<path d="M26.0938 3.86255L24.0625 8.0188L19.4688 8.67505C18.6562 8.80005 18.3438 9.80005 18.9375 10.3938L22.2188 13.6125L21.4375 18.1438C21.3125 18.9563 22.1875 19.5813 22.9062 19.2063L27 17.05L31.0625 19.2063C31.7812 19.5813 32.6562 18.9563 32.5312 18.1438L31.75 13.6125L35.0312 10.3938C35.625 9.80005 35.3125 8.80005 34.5 8.67505L29.9375 8.0188L27.875 3.86255C27.5312 3.1438 26.4688 3.11255 26.0938 3.86255Z" fill="#07393C"/>
<path d="M52.5 8.67505L47.9375 8.0188L45.875 3.86255C45.5312 3.1438 44.4688 3.11255 44.0938 3.86255L42.0625 8.0188L37.4688 8.67505C36.6562 8.80005 36.3438 9.80005 36.9375 10.3938L40.2188 13.6125L39.4375 18.1438C39.3125 18.9563 40.1875 19.5813 40.9062 19.2063L45 17.05L49.0625 19.2063C49.7812 19.5813 50.6562 18.9563 50.5312 18.1438L49.75 13.6125L53.0312 10.3938C53.625 9.80005 53.3125 8.80005 52.5 8.67505ZM48.125 13.0813L48.875 17.3938L45 15.3625L41.0938 17.3938L41.8438 13.0813L38.6875 10.0188L43.0312 9.3938L45 5.4563L46.9375 9.3938L51.2812 10.0188L48.125 13.0813Z" fill="#07393C"/>
<path d="M70.5 8.67505L65.9375 8.0188L63.875 3.86255C63.5312 3.1438 62.4688 3.11255 62.0938 3.86255L60.0625 8.0188L55.4688 8.67505C54.6562 8.80005 54.3438 9.80005 54.9375 10.3938L58.2188 13.6125L57.4375 18.1438C57.3125 18.9563 58.1875 19.5813 58.9062 19.2063L63 17.05L67.0625 19.2063C67.7812 19.5813 68.6562 18.9563 68.5312 18.1438L67.75 13.6125L71.0312 10.3938C71.625 9.80005 71.3125 8.80005 70.5 8.67505ZM66.125 13.0813L66.875 17.3938L63 15.3625L59.0938 17.3938L59.8438 13.0813L56.6875 10.0188L61.0312 9.3938L63 5.4563L64.9375 9.3938L69.2812 10.0188L66.125 13.0813Z" fill="#07393C"/>
<path d="M88.5 8.67505L83.9375 8.0188L81.875 3.86255C81.5312 3.1438 80.4688 3.11255 80.0938 3.86255L78.0625 8.0188L73.4688 8.67505C72.6562 8.80005 72.3438 9.80005 72.9375 10.3938L76.2188 13.6125L75.4375 18.1438C75.3125 18.9563 76.1875 19.5813 76.9062 19.2063L81 17.05L85.0625 19.2063C85.7812 19.5813 86.6562 18.9563 86.5312 18.1438L85.75 13.6125L89.0312 10.3938C89.625 9.80005 89.3125 8.80005 88.5 8.67505ZM84.125 13.0813L84.875 17.3938L81 15.3625L77.0938 17.3938L77.8438 13.0813L74.6875 10.0188L79.0312 9.3938L81 5.4563L82.9375 9.3938L87.2812 10.0188L84.125 13.0813Z" fill="#07393C"/>
</svg>
