<svg width="15" height="17" viewBox="0 0 15 17" fill="none" xmlns="http://www.w3.org/2000/svg">
<path d="M1.56244 14.7002C1.56244 15.5439 2.21869 16.2002 3.06244 16.2002H12.0624C12.8749 16.2002 13.5624 15.5439 13.5624 14.7002V4.2002H1.56244V14.7002ZM10.0624 6.7002C10.0624 6.4502 10.2812 6.2002 10.5624 6.2002C10.8124 6.2002 11.0624 6.4502 11.0624 6.7002V13.7002C11.0624 13.9814 10.8124 14.2002 10.5624 14.2002C10.2812 14.2002 10.0624 13.9814 10.0624 13.7002V6.7002ZM7.06244 6.7002C7.06244 6.4502 7.28119 6.2002 7.56244 6.2002C7.81244 6.2002 8.06244 6.4502 8.06244 6.7002V13.7002C8.06244 13.9814 7.81244 14.2002 7.56244 14.2002C7.28119 14.2002 7.06244 13.9814 7.06244 13.7002V6.7002ZM4.06244 6.7002C4.06244 6.4502 4.28119 6.2002 4.56244 6.2002C4.81244 6.2002 5.06244 6.4502 5.06244 6.7002V13.7002C5.06244 13.9814 4.81244 14.2002 4.56244 14.2002C4.28119 14.2002 4.06244 13.9814 4.06244 13.7002V6.7002ZM14.0624 1.2002H10.3124L9.99994 0.637695C9.87494 0.387695 9.62494 0.200195 9.34369 0.200195H5.74994C5.46869 0.200195 5.21869 0.387695 5.09369 0.637695L4.81244 1.2002H1.06244C0.781189 1.2002 0.562439 1.4502 0.562439 1.7002V2.7002C0.562439 2.98145 0.781189 3.2002 1.06244 3.2002H14.0624C14.3124 3.2002 14.5624 2.98145 14.5624 2.7002V1.7002C14.5624 1.4502 14.3124 1.2002 14.0624 1.2002Z" fill="#555656"/>
</svg>
